<?xml version="1.0" encoding="UTF-8" standalone="no"?>
<svg
   width="371.48093"
   height="43.932999"
   viewBox="0 0 371.48093 43.932999"
   fill="none"
   version="1.1"
   id="svg4"
   xmlns="http://www.w3.org/2000/svg"
   xmlns:svg="http://www.w3.org/2000/svg">
  <defs
     id="defs4" />
  <path
     d="m 18.1528,39.313262 3.2807,-10.8808 c -1.4216,-0.7928 -2.4058,-2.2964 -2.4058,-4.0461 0,-2.5425 2.0504,-4.5929 4.5929,-4.5929 2.5425,0 4.5929,2.0504 4.5929,4.5929 0,1.7497 -0.9569,3.2533 -2.4058,4.0461 l 3.2806,10.8808 z"
     fill="white"
     id="path1"
     style="fill:#071a2d;fill-opacity:1" />
  <path
     d="m 6.39746,24.385962 v 0.4374 h 2.0504 v -0.4374 c 0,-8.393 6.80734,-15.20028 15.20034,-15.20028 h 2.7338 v -2.0504 h -2.7338 c -9.5139,0 -17.25074,7.70948 -17.25074,17.25068 z"
     fill="white"
     id="path2"
     style="fill:#071a2d;fill-opacity:1" />
  <path
     d="m 12.6577,24.386162 v 0.4374 h 2.0504 v -0.4374 c 0,-4.9483 4.0188,-8.9671 8.9398,-8.9671 h 2.7338 v -2.0504 h -2.7338 c -6.0692,0 -10.9902,4.921 -10.9902,11.0175 z"
     fill="white"
     id="path3"
     style="fill:#071a2d;fill-opacity:1" />
  <path
     d="M 23.6479,0.68313 V 0.737807 C 10.5801,0.710469 0,11.317862 0,24.385762 v 0.4374 h 2.0504 v -0.4374 c 0,-11.9197 9.6779,-21.59756 21.5975,-21.59756 v -0.05467 h 2.7339 V 0.68313 Z"
     fill="white"
     id="path4"
     style="fill:#071a2d;fill-opacity:1" />
  <path
     d="M 46.10945,39.314162 V 7.984112 H 35.201313 V 1.286137 H 65.27385 v 6.697975 h -10.9628 v 31.33005 z"
     fill="#ffffff"
     id="path1-2"
     style="fill:#071a2d;fill-opacity:1" />
  <path
     d="M 62.86785,39.313262 75.33425,1.28516 h 9.7599 l 12.4117,38.028102 h -8.6936 l -5.3858,-19.5745 c -0.5467,-1.9411 -1.1209,-3.9915 -1.6403,-6.1239 -0.5468,-2.1324 -1.0935,-4.21012 -1.6403,-6.23318 h -0.2461 c -0.492,2.02306 -0.9841,4.10078 -1.5309,6.23318 -0.5468,2.1324 -1.0936,4.1828 -1.6403,6.1239 l -5.4404,19.5745 z m 7.9282,-9.4865 v -6.1786 h 18.6996 v 6.1786 z"
     fill="#ffffff"
     id="path2-4"
     style="fill:#071a2d;fill-opacity:1" />
  <path
     d="M 103.13785,39.313262 V 1.28516 h 13.0679 c 2.8705,0 5.4677,0.382742 7.7915,1.148222 2.3238,0.76548 4.1555,1.99572 5.5497,3.7454 1.367,1.74967 2.0778,4.12818 2.0778,7.16268 0,2.8979 -0.6835,5.3037 -2.0504,7.1901 -1.367,1.8864 -3.1987,3.2806 -5.4951,4.1555 -2.2964,0.9022 -4.8389,1.3396 -7.6275,1.3396 h -5.085 v 13.2866 z m 8.2289,-19.6292 h 4.5656 c 2.5971,0 4.5109,-0.5468 5.7958,-1.613 1.2576,-1.0662 1.8863,-2.6518 1.8863,-4.7569 0,-2.1051 -0.6561,-3.58136 -1.9957,-4.42886 -1.3396,-0.84749 -3.308,-1.28491 -5.9051,-1.28491 h -4.3195 v 12.08367 z"
     fill="#ffffff"
     id="path3-8"
     style="fill:#071a2d;fill-opacity:1" />
  <path
     d="M 136.21795,39.313262 V 1.28516 h 13.068 c 2.87,0 5.468,0.382742 7.791,1.148222 2.324,0.76548 4.156,1.99572 5.55,3.7454 1.367,1.74967 2.078,4.12818 2.078,7.16268 0,2.8979 -0.684,5.3037 -2.051,7.1901 -1.366,1.8864 -3.198,3.2806 -5.495,4.1555 -2.296,0.9022 -4.839,1.3396 -7.627,1.3396 h -5.085 v 13.2866 z m 8.202,-19.6292 h 4.565 c 2.597,0 4.511,-0.5468 5.796,-1.613 1.257,-1.0662 1.886,-2.6518 1.886,-4.7569 0,-2.1051 -0.656,-3.58136 -1.995,-4.42886 -1.34,-0.84749 -3.308,-1.28491 -5.906,-1.28491 h -4.319 v 12.08367 z"
     fill="#ffffff"
     id="path4-3"
     style="fill:#071a2d;fill-opacity:1" />
  <path
     d="M 176.47424,16.2941 V 2.98015 h -4.51088 V 1.28516 h 11.04478 v 1.69499 h -4.51085 V 16.2941 Z"
     fill="#ffffff"
     id="path1-0"
     style="fill:#071a2d;fill-opacity:1" />
  <path
     d="M 184.56634,16.2938 V 5.1396 h 1.613 l 0.1914,2.0504 h 0.0547 c 0.4101,-0.71081 0.8748,-1.28492 1.4216,-1.695 0.5468,-0.41008 1.1482,-0.62879 1.7497,-0.62879 0.246,0 0.4647,0.02734 0.6561,0.05468 0.1914,0.02734 0.3827,0.08201 0.5468,0.16403 l -0.3554,1.74967 c -0.1914,-0.05467 -0.3554,-0.10935 -0.4921,-0.13669 -0.1641,-0.02734 -0.3554,-0.05468 -0.5741,-0.05468 -0.4648,0 -0.9569,0.19137 -1.4763,0.57411 -0.5195,0.38275 -0.9569,1.03887 -1.3123,1.96839 v 7.10808 z"
     fill="#ffffff"
     id="path2-2"
     style="fill:#071a2d;fill-opacity:1" />
  <path
     d="m 195.06434,16.5677 c -0.6288,0 -1.1756,-0.1367 -1.695,-0.3828 -0.4921,-0.246 -0.8749,-0.6288 -1.1756,-1.0935 -0.2734,-0.4921 -0.4101,-1.0389 -0.4101,-1.695 0,-1.2029 0.5468,-2.1324 1.6404,-2.7886 1.0935,-0.6561 2.8158,-1.09352 5.1669,-1.33957 0,-0.46475 -0.0546,-0.92951 -0.1913,-1.33959 -0.1094,-0.41008 -0.3554,-0.76548 -0.6835,-1.01153 -0.328,-0.24605 -0.7928,-0.38274 -1.3669,-0.38274 -0.6288,0 -1.2303,0.13669 -1.8044,0.38274 -0.5467,0.24605 -1.0662,0.51943 -1.5036,0.82016 l -0.7655,-1.3396 c 0.3554,-0.21871 0.7655,-0.46475 1.2029,-0.68346 0.4648,-0.21871 0.9569,-0.41008 1.4763,-0.57411 0.5468,-0.1367 1.0936,-0.21871 1.695,-0.21871 0.9022,0 1.6677,0.19137 2.2418,0.57411 0.5741,0.38274 1.0115,0.90217 1.2576,1.61298 0.2733,0.68347 0.41,1.50363 0.41,2.46048 v 6.80734 h -1.6129 l -0.1914,-1.3396 h -0.0547 c -0.5468,0.4374 -1.0935,0.8201 -1.7223,1.1209 -0.5741,0.246 -1.2303,0.4101 -1.9137,0.4101 z m 0.5741,-1.5857 c 0.5468,0 1.0389,-0.1093 1.4763,-0.3554 0.4647,-0.246 0.9568,-0.6014 1.4762,-1.0662 v -3.0346 c -1.2029,0.164 -2.1597,0.3554 -2.8705,0.6015 -0.7108,0.246 -1.2302,0.5467 -1.531,0.9021 -0.3007,0.3554 -0.4647,0.7655 -0.4647,1.2303 0,0.6014 0.1914,1.0388 0.5741,1.3122 0.3827,0.2734 0.8201,0.4101 1.3396,0.4101 z"
     fill="#ffffff"
     id="path3-3"
     style="fill:#071a2d;fill-opacity:1" />
  <path
     d="M 203.94974,16.2938 V 5.1396 h 1.6129 l 0.1914,1.61298 h 0.0547 c 0.5467,-0.54677 1.0935,-0.98419 1.695,-1.3396 0.6014,-0.3554 1.2849,-0.54677 2.0504,-0.54677 1.2029,0 2.0504,0.38274 2.5971,1.12089 0.5468,0.73814 0.8202,1.83169 0.8202,3.2533 v 7.0534 h -1.9957 V 9.48644 c 0,-1.01153 -0.1641,-1.74967 -0.4921,-2.21443 -0.3281,-0.46475 -0.8475,-0.68346 -1.5583,-0.68346 -0.5741,0 -1.0662,0.13669 -1.5036,0.41008 -0.4375,0.27338 -0.9296,0.7108 -1.4763,1.25757 v 8.0376 z"
     fill="#ffffff"
     id="path4-9"
     style="fill:#071a2d;fill-opacity:1" />
  <path
     d="m 219.34104,16.5672 c -0.7929,0 -1.5584,-0.1367 -2.2965,-0.4375 -0.7381,-0.3007 -1.3669,-0.6561 -1.8864,-1.1208 l 0.9569,-1.285 c 0.4921,0.3828 0.9842,0.6835 1.5036,0.9296 0.5195,0.246 1.0936,0.3554 1.7497,0.3554 0.7108,0 1.2576,-0.1641 1.613,-0.4921 0.3554,-0.3281 0.5467,-0.7108 0.5467,-1.1756 0,-0.3827 -0.1367,-0.7108 -0.3827,-0.9569 -0.246,-0.246 -0.5741,-0.4647 -0.9569,-0.6287 -0.3827,-0.1641 -0.7928,-0.3281 -1.2028,-0.4921 -0.5195,-0.1914 -1.0389,-0.4101 -1.531,-0.6562 -0.4921,-0.246 -0.9295,-0.6014 -1.2576,-1.0115 -0.3281,-0.41008 -0.4921,-0.92952 -0.4921,-1.5583 0,-0.90218 0.3554,-1.66766 1.0389,-2.26911 0.6835,-0.60145 1.6403,-0.90218 2.8432,-0.90218 0.7108,0 1.3669,0.13669 1.9684,0.38274 0.6014,0.24605 1.0935,0.54678 1.531,0.87484 l -0.9296,1.28492 c -0.3827,-0.30073 -0.7654,-0.51944 -1.1755,-0.71081 -0.4101,-0.19137 -0.8475,-0.27339 -1.3396,-0.27339 -0.6835,0 -1.2029,0.16404 -1.531,0.46476 -0.328,0.30073 -0.4921,0.68347 -0.4921,1.09355 0,0.3554 0.1094,0.62879 0.3554,0.8475 0.2461,0.21871 0.5468,0.41008 0.9022,0.57411 0.3827,0.16403 0.7655,0.32806 1.2029,0.46475 0.5194,0.19142 1.0389,0.41012 1.5583,0.68352 0.5194,0.246 0.9569,0.5741 1.2849,1.0115 0.3554,0.4101 0.5195,0.9842 0.5195,1.695 0,0.6014 -0.1641,1.1755 -0.4648,1.6676 -0.3007,0.4921 -0.7655,0.9022 -1.3943,1.2029 -0.6288,0.3008 -1.3669,0.4375 -2.2417,0.4375 z"
     fill="#ffffff"
     id="path5"
     style="fill:#071a2d;fill-opacity:1" />
  <path
     d="m 228.88264,16.5677 c -0.6288,0 -1.1755,-0.1367 -1.695,-0.3828 -0.4921,-0.246 -0.8748,-0.6288 -1.1755,-1.0935 -0.2734,-0.4921 -0.4101,-1.0389 -0.4101,-1.695 0,-1.2029 0.5468,-2.1324 1.6403,-2.7886 1.0936,-0.6561 2.8159,-1.09352 5.167,-1.33957 0,-0.46475 -0.0547,-0.92951 -0.1914,-1.33959 -0.1093,-0.41008 -0.3554,-0.76548 -0.6834,-1.01153 -0.3281,-0.24605 -0.7929,-0.38274 -1.367,-0.38274 -0.6288,0 -1.2302,0.13669 -1.8043,0.38274 -0.5468,0.24605 -1.0662,0.51943 -1.5036,0.82016 l -0.7655,-1.3396 c 0.3554,-0.21871 0.7655,-0.46475 1.2029,-0.68346 0.4647,-0.21871 0.9568,-0.41008 1.4763,-0.57411 0.5467,-0.1367 1.0935,-0.21871 1.695,-0.21871 0.9021,0 1.6676,0.19137 2.2417,0.57411 0.5742,0.38274 1.0116,0.90217 1.2576,1.61298 0.2734,0.68347 0.4101,1.50363 0.4101,2.46048 v 6.80734 h -1.613 l -0.1913,-1.3396 h -0.0547 c -0.5468,0.4374 -1.0936,0.8201 -1.7224,1.1209 -0.5741,0.246 -1.2302,0.4101 -1.9137,0.4101 z m 0.5741,-1.5857 c 0.5468,0 1.0389,-0.1093 1.4763,-0.3554 0.4648,-0.246 0.9569,-0.6014 1.4763,-1.0662 v -3.0346 c -1.2029,0.164 -2.1597,0.3554 -2.8706,0.6015 -0.7108,0.246 -1.2302,0.5467 -1.5309,0.9021 -0.3007,0.3554 -0.4648,0.7655 -0.4648,1.2303 0,0.6014 0.1914,1.0388 0.5741,1.3122 0.3554,0.2734 0.8202,0.4101 1.3396,0.4101 z"
     fill="#ffffff"
     id="path6"
     style="fill:#071a2d;fill-opacity:1" />
  <path
     d="m 241.29454,16.5671 c -1.2029,0 -2.0231,-0.3554 -2.4879,-1.0388 -0.4647,-0.6835 -0.7108,-1.5857 -0.7108,-2.7066 V 6.77988 h -1.6403 V 5.27625 l 1.7497,-0.10935 0.2187,-3.11661 h 1.6403 V 5.1669 h 3.0073 v 1.61298 h -3.0073 v 6.06922 c 0,0.6834 0.1367,1.2029 0.3828,1.5583 0.246,0.3827 0.7108,0.5741 1.3395,0.5741 0.1914,0 0.4101,-0.0274 0.6288,-0.082 0.2188,-0.0547 0.4375,-0.1367 0.6288,-0.2187 l 0.3554,1.4762 c -0.3007,0.1094 -0.6288,0.1914 -1.0115,0.2734 -0.3554,0.1094 -0.7108,0.1367 -1.0935,0.1367 z"
     fill="#ffffff"
     id="path7"
     style="fill:#071a2d;fill-opacity:1" />
  <path
     d="m 247.52744,16.5672 c -0.4921,0 -0.8748,-0.1093 -1.2029,-0.3007 -0.3007,-0.2187 -0.5195,-0.4921 -0.6561,-0.8748 -0.1367,-0.3828 -0.2187,-0.8475 -0.2187,-1.4217 V 0 h 1.9957 v 14.1067 c 0,0.3008 0.0547,0.4921 0.164,0.6288 0.1094,0.1367 0.2187,0.1914 0.3554,0.1914 0.0547,0 0.1094,0 0.164,0 0.0547,0 0.1367,-0.0273 0.2461,-0.0273 l 0.246,1.5036 c -0.1093,0.0547 -0.2733,0.082 -0.4647,0.1367 -0.1367,0 -0.3554,0.0273 -0.6288,0.0273 z"
     fill="#ffffff"
     id="path8"
     style="fill:#071a2d;fill-opacity:1" />
  <path
     d="m 253.78794,16.5677 c -0.6288,0 -1.1756,-0.1367 -1.695,-0.3828 -0.4921,-0.246 -0.8748,-0.6288 -1.1756,-1.0935 -0.2733,-0.4921 -0.41,-1.0389 -0.41,-1.695 0,-1.2029 0.5467,-2.1324 1.6403,-2.7886 1.0935,-0.6561 2.8159,-1.09352 5.167,-1.33957 0,-0.46475 -0.0547,-0.92951 -0.1914,-1.33959 -0.1093,-0.41008 -0.3554,-0.76548 -0.6834,-1.01153 -0.3281,-0.24605 -0.7929,-0.38274 -1.367,-0.38274 -0.6288,0 -1.2302,0.13669 -1.8043,0.38274 -0.5468,0.24605 -1.0662,0.51943 -1.5037,0.82016 l -0.7654,-1.3396 c 0.3554,-0.21871 0.7654,-0.46475 1.2029,-0.68346 0.4647,-0.21871 0.9568,-0.41008 1.4762,-0.57411 0.5468,-0.1367 1.0936,-0.21871 1.695,-0.21871 0.9022,0 1.6677,0.19137 2.2418,0.57411 0.5741,0.38274 1.0115,0.90217 1.2576,1.61298 0.2734,0.68347 0.4101,1.50363 0.4101,2.46048 v 6.80734 h -1.613 l -0.1914,-1.3396 h -0.0547 c -0.5467,0.4374 -1.0935,0.8201 -1.7223,1.1209 -0.5741,0.246 -1.2029,0.4101 -1.9137,0.4101 z m 0.5741,-1.5857 c 0.5468,0 1.0389,-0.1093 1.4763,-0.3554 0.4648,-0.246 0.9569,-0.6014 1.4763,-1.0662 v -3.0346 c -1.2029,0.164 -2.1598,0.3554 -2.8706,0.6015 -0.7108,0.246 -1.2302,0.5467 -1.5309,0.9021 -0.3008,0.3554 -0.4648,0.7655 -0.4648,1.2303 0,0.6014 0.1914,1.0388 0.5741,1.3122 0.3828,0.2734 0.8202,0.4101 1.3396,0.4101 z"
     fill="#ffffff"
     id="path9"
     style="fill:#071a2d;fill-opacity:1" />
  <path
     d="M 262.86424,16.2938 V 5.1396 h 1.613 l 0.1913,1.61298 h 0.0547 c 0.5468,-0.54677 1.0936,-0.98419 1.695,-1.3396 0.6015,-0.3554 1.2849,-0.54677 2.0504,-0.54677 1.2029,0 2.0504,0.38274 2.5972,1.12089 0.5471,0.73814 0.8201,1.83169 0.8201,3.2533 v 7.0534 h -1.9957 V 9.48644 c 0,-1.01153 -0.164,-1.74967 -0.4921,-2.21443 -0.328,-0.46475 -0.8475,-0.68346 -1.5583,-0.68346 -0.5741,0 -1.0662,0.13669 -1.5036,0.41008 -0.4374,0.27338 -0.9295,0.7108 -1.4763,1.25757 v 8.0376 z"
     fill="#ffffff"
     id="path10"
     style="fill:#071a2d;fill-opacity:1" />
  <path
     d="m 278.82994,16.5671 c -1.203,0 -2.023,-0.3554 -2.488,-1.0388 -0.464,-0.6835 -0.71,-1.5857 -0.71,-2.7066 V 6.77988 h -1.641 V 5.27625 l 1.75,-0.10935 0.219,-3.11661 h 1.64 V 5.1669 h 3.007 v 1.61298 h -3.007 v 6.06922 c 0,0.6834 0.137,1.2029 0.383,1.5583 0.246,0.3827 0.711,0.5741 1.339,0.5741 0.192,0 0.41,-0.0274 0.629,-0.082 0.219,-0.0547 0.437,-0.1367 0.629,-0.2187 l 0.355,1.4762 c -0.3,0.1094 -0.629,0.1914 -1.011,0.2734 -0.356,0.1094 -0.711,0.1367 -1.094,0.1367 z"
     fill="#ffffff"
     id="path11"
     style="fill:#071a2d;fill-opacity:1" />
  <path
     d="m 284.18894,2.89796 c -0.356,0 -0.684,-0.10935 -0.902,-0.3554 -0.246,-0.24605 -0.356,-0.54677 -0.356,-0.92951 0,-0.35541 0.11,-0.656131 0.356,-0.902179 0.246,-0.246048 0.546,-0.355402 0.902,-0.355402 0.383,0 0.683,0.109354 0.929,0.355402 0.246,0.246048 0.356,0.546769 0.356,0.902179 0,0.38274 -0.11,0.68346 -0.356,0.92951 -0.218,0.24605 -0.546,0.3554 -0.929,0.3554 z m -0.984,13.39594 V 5.13973 h 1.995 V 16.2939 Z"
     fill="#ffffff"
     id="path12"
     style="fill:#071a2d;fill-opacity:1" />
  <path
     d="m 293.18294,16.5669 c -0.984,0 -1.886,-0.2187 -2.679,-0.6835 -0.793,-0.4647 -1.422,-1.1208 -1.886,-1.9957 -0.465,-0.8748 -0.711,-1.9137 -0.711,-3.1713 0,-1.2302 0.246,-2.29641 0.765,-3.17124 0.492,-0.87484 1.176,-1.55831 1.969,-1.99573 0.82,-0.46475 1.695,-0.68346 2.679,-0.68346 0.738,0 1.367,0.13669 1.886,0.38274 0.52,0.24605 0.984,0.57411 1.367,0.90217 l -1.011,1.31226 c -0.328,-0.30073 -0.657,-0.51943 -0.985,-0.71081 -0.355,-0.16403 -0.738,-0.27338 -1.148,-0.27338 -0.683,0 -1.257,0.16403 -1.777,0.51943 -0.519,0.3554 -0.902,0.8475 -1.203,1.47629 -0.3,0.62879 -0.437,1.36693 -0.437,2.21443 0,0.8475 0.137,1.5583 0.41,2.1871 0.273,0.6288 0.683,1.1209 1.203,1.4763 0.519,0.3554 1.093,0.5194 1.75,0.5194 0.492,0 0.984,-0.1093 1.421,-0.328 0.438,-0.2188 0.82,-0.4648 1.176,-0.7655 l 0.847,1.3396 c -0.492,0.4647 -1.066,0.8201 -1.695,1.0662 -0.629,0.246 -1.257,0.3827 -1.941,0.3827 z"
     fill="#ffffff"
     id="path13"
     style="fill:#071a2d;fill-opacity:1" />
  <path
     d="M 304.14594,16.2941 V 1.28516 h 4.347 c 1.121,0 2.105,0.13669 2.952,0.41008 0.848,0.27338 1.504,0.73814 1.996,1.39427 0.492,0.65613 0.711,1.53096 0.711,2.62451 0,1.06621 -0.246,1.94104 -0.711,2.62451 -0.465,0.68347 -1.121,1.2029 -1.968,1.53096 -0.848,0.32811 -1.805,0.49211 -2.871,0.49211 h -2.433 v 5.9051 h -2.023 z m 1.996,-7.51815 h 2.187 c 1.285,0 2.242,-0.24605 2.87,-0.73815 0.629,-0.49209 0.93,-1.25757 0.93,-2.32378 0,-1.06621 -0.328,-1.77701 -0.984,-2.18709 -0.656,-0.41008 -1.613,-0.62879 -2.925,-0.62879 h -2.078 z"
     fill="#ffffff"
     id="path14"
     style="fill:#071a2d;fill-opacity:1" />
  <path
     d="M 316.85794,16.2935 V 5.13935 h 1.613 l 0.192,2.0504 h 0.054 c 0.411,-0.7108 0.875,-1.28491 1.422,-1.69499 0.547,-0.41008 1.148,-0.62879 1.75,-0.62879 0.246,0 0.465,0.02734 0.656,0.05467 0.191,0.02734 0.383,0.08202 0.547,0.16404 l -0.356,1.74967 c -0.191,-0.05468 -0.355,-0.10935 -0.492,-0.13669 -0.164,-0.02734 -0.355,-0.05468 -0.574,-0.05468 -0.465,0 -0.957,0.19137 -1.476,0.57411 -0.52,0.38274 -0.957,1.03887 -1.312,1.96838 v 7.10803 z"
     fill="#ffffff"
     id="path15"
     style="fill:#071a2d;fill-opacity:1" />
  <path
     d="m 325.79794,2.89796 c -0.355,0 -0.683,-0.10935 -0.902,-0.3554 -0.246,-0.24605 -0.355,-0.54677 -0.355,-0.92951 0,-0.35541 0.109,-0.656131 0.355,-0.902179 0.246,-0.246048 0.547,-0.355402 0.902,-0.355402 0.383,0 0.684,0.109354 0.93,0.355402 0.246,0.246048 0.355,0.546769 0.355,0.902179 0,0.38274 -0.109,0.68346 -0.355,0.92951 -0.246,0.24605 -0.547,0.3554 -0.93,0.3554 z m -1.011,13.39594 V 5.13973 h 1.995 V 16.2939 Z"
     fill="#ffffff"
     id="path16"
     style="fill:#071a2d;fill-opacity:1" />
  <path
     d="m 332.79694,16.2933 -4.019,-11.15414 h 2.051 l 2.05,6.26054 c 0.164,0.5468 0.328,1.0936 0.52,1.6677 0.164,0.5467 0.355,1.0935 0.519,1.6403 h 0.082 c 0.164,-0.5468 0.328,-1.0662 0.492,-1.6403 0.164,-0.5468 0.356,-1.1209 0.52,-1.6677 l 2.05,-6.26054 h 1.941 l -3.909,11.15414 z"
     fill="#ffffff"
     id="path17"
     style="fill:#071a2d;fill-opacity:1" />
  <path
     d="m 343.62294,16.5674 c -0.629,0 -1.176,-0.1367 -1.695,-0.3827 -0.492,-0.2461 -0.875,-0.6288 -1.176,-1.0936 -0.273,-0.4921 -0.41,-1.0388 -0.41,-1.695 0,-1.2029 0.547,-2.1324 1.641,-2.7885 1.093,-0.65614 2.816,-1.09356 5.167,-1.33961 0,-0.46476 -0.055,-0.92952 -0.192,-1.3396 -0.109,-0.41007 -0.355,-0.76548 -0.683,-1.01153 -0.328,-0.24604 -0.793,-0.38274 -1.367,-0.38274 -0.629,0 -1.23,0.1367 -1.804,0.38274 -0.547,0.24605 -1.067,0.51944 -1.504,0.82016 l -0.766,-1.33959 c 0.356,-0.21871 0.766,-0.46476 1.203,-0.68347 0.465,-0.21871 0.957,-0.41008 1.477,-0.57411 0.546,-0.13669 1.093,-0.21871 1.695,-0.21871 0.902,0 1.667,0.19137 2.241,0.57411 0.574,0.38275 1.012,0.90218 1.258,1.61299 0.273,0.68346 0.41,1.50362 0.41,2.46047 V 16.376 h -1.613 l -0.191,-1.3396 h -0.055 c -0.547,0.4375 -1.094,0.8202 -1.722,1.1209 -0.574,0.2461 -1.231,0.4101 -1.914,0.4101 z m 0.574,-1.5856 c 0.547,0 1.039,-0.1094 1.476,-0.3554 0.465,-0.2461 0.957,-0.6015 1.477,-1.0662 v -3.0346 c -1.203,0.164 -2.16,0.3554 -2.871,0.6014 -0.711,0.2461 -1.23,0.5468 -1.531,0.9022 -0.301,0.3554 -0.465,0.7655 -0.465,1.2302 0,0.6015 0.192,1.0389 0.575,1.3123 0.382,0.2734 0.82,0.4101 1.339,0.4101 z"
     fill="#ffffff"
     id="path18"
     style="fill:#071a2d;fill-opacity:1" />
  <path
     d="m 356.93694,16.5669 c -0.984,0 -1.886,-0.2187 -2.679,-0.6835 -0.793,-0.4647 -1.422,-1.1208 -1.887,-1.9957 -0.464,-0.8748 -0.71,-1.9137 -0.71,-3.1713 0,-1.2302 0.246,-2.29641 0.765,-3.17124 0.492,-0.87484 1.176,-1.55831 1.969,-1.99573 0.82,-0.46475 1.695,-0.68346 2.679,-0.68346 0.738,0 1.367,0.13669 1.886,0.38274 0.52,0.24605 0.984,0.57411 1.367,0.90217 l -1.011,1.31226 c -0.329,-0.30073 -0.657,-0.51943 -0.985,-0.71081 -0.355,-0.16403 -0.738,-0.27338 -1.148,-0.27338 -0.683,0 -1.257,0.16403 -1.777,0.51943 -0.519,0.3554 -0.902,0.8475 -1.203,1.47629 -0.301,0.62879 -0.437,1.36693 -0.437,2.21443 0,0.8475 0.136,1.5583 0.41,2.1871 0.273,0.6288 0.683,1.1209 1.203,1.4763 0.519,0.3554 1.093,0.5194 1.749,0.5194 0.493,0 0.985,-0.1093 1.422,-0.328 0.437,-0.2188 0.82,-0.4648 1.176,-0.7655 l 0.847,1.3396 c -0.492,0.4647 -1.066,0.8201 -1.695,1.0662 -0.629,0.246 -1.257,0.3827 -1.941,0.3827 z"
     fill="#ffffff"
     id="path19"
     style="fill:#071a2d;fill-opacity:1" />
  <path
     d="m 363.08794,21.0503 c -0.273,0 -0.492,-0.0274 -0.711,-0.0821 -0.218,-0.0546 -0.41,-0.1093 -0.629,-0.164 l 0.383,-1.5583 c 0.11,0.0273 0.246,0.0547 0.41,0.1094 0.164,0.0273 0.301,0.0546 0.438,0.0546 0.629,0 1.148,-0.2187 1.558,-0.6561 0.41,-0.4374 0.711,-1.0115 0.93,-1.6676 l 0.246,-0.7929 -4.457,-11.15414 h 2.051 l 2.214,6.06914 c 0.192,0.4921 0.356,1.0116 0.547,1.5583 0.191,0.5468 0.355,1.0663 0.519,1.613 h 0.082 c 0.164,-0.5194 0.329,-1.0388 0.493,-1.5856 0.164,-0.5468 0.3,-1.0662 0.464,-1.5583 l 1.914,-6.0692 h 1.941 l -4.155,12.029 c -0.274,0.7382 -0.602,1.4216 -0.957,1.9957 -0.356,0.5741 -0.82,1.0389 -1.34,1.3943 -0.519,0.3007 -1.175,0.4648 -1.941,0.4648 z"
     fill="#ffffff"
     id="path20"
     style="fill:#071a2d;fill-opacity:1" />
  <path
     d="M 173.3574,39.2584 V 24.2495 h 4.34686 c 1.12088,0 2.10507,0.1367 2.95257,0.4101 0.84751,0.2734 1.50361,0.7381 1.99571,1.3943 0.4921,0.6561 0.7108,1.5309 0.7108,2.6245 0,1.0662 -0.246,1.941 -0.7108,2.6245 -0.4647,0.6835 -1.1209,1.2029 -1.96838,1.5309 -0.8475,0.3281 -1.80435,0.4921 -2.87056,0.4921 h -2.43313 v 5.9052 h -2.02307 z m 2.02307,-7.5454 h 2.18709 c 1.28492,0 2.24177,-0.2461 2.87056,-0.7382 0.62879,-0.4921 0.92951,-1.2576 0.92951,-2.3238 0,-1.0662 -0.32806,-1.777 -0.98419,-2.1871 -0.65613,-0.41 -1.61298,-0.6287 -2.92524,-0.6287 h -2.07773 z"
     fill="#ffffff"
     id="path21"
     style="fill:#071a2d;fill-opacity:1" />
  <path
     d="m 190.60834,39.5315 c -0.9842,0 -1.8863,-0.246 -2.7065,-0.7108 -0.8202,-0.4648 -1.4489,-1.1209 -1.941,-1.9957 -0.4921,-0.8749 -0.7109,-1.9137 -0.7109,-3.144 0,-1.2029 0.2461,-2.2417 0.7109,-3.1166 0.4921,-0.8748 1.0935,-1.5583 1.8863,-2.023 0.7655,-0.4648 1.5857,-0.7108 2.4332,-0.7108 0.9568,0 1.7496,0.2187 2.4331,0.6561 0.6835,0.4374 1.1756,1.0389 1.531,1.8317 0.3554,0.7928 0.5194,1.695 0.5194,2.7612 0,0.1914 0,0.4101 -0.0273,0.6014 -0.0274,0.1914 -0.0274,0.3554 -0.0821,0.4921 h -7.8462 l -0.0273,-1.4216 h 6.2332 c 0,-1.0935 -0.246,-1.9137 -0.7108,-2.4878 -0.4647,-0.5741 -1.1209,-0.8475 -1.9957,-0.8475 -0.5194,0 -1.0115,0.1367 -1.5036,0.4374 -0.4921,0.3008 -0.9022,0.7655 -1.2029,1.3943 -0.3007,0.6288 -0.4648,1.4489 -0.4648,2.4331 0,0.9569 0.164,1.7497 0.5194,2.3785 0.3554,0.6288 0.7929,1.0935 1.367,1.3943 0.5741,0.3007 1.1755,0.4647 1.859,0.4647 0.5468,0 1.0115,-0.082 1.4763,-0.246 0.4374,-0.164 0.8748,-0.3828 1.2849,-0.6288 l 0.7108,1.2849 c -0.4921,0.3281 -1.0389,0.6015 -1.6676,0.8202 -0.6562,0.2734 -1.3396,0.3827 -2.0778,0.3827 z"
     fill="#ffffff"
     id="path22"
     style="fill:#071a2d;fill-opacity:1" />
  <path
     d="M 197.71634,39.2581 V 28.104 h 1.6129 l 0.1914,2.0504 h 0.0547 c 0.4101,-0.7109 0.8748,-1.285 1.4216,-1.695 0.5468,-0.4101 1.1482,-0.6288 1.7497,-0.6288 0.246,0 0.4647,0.0273 0.6561,0.0546 0.1914,0.0274 0.3827,0.0821 0.5468,0.1641 l -0.3554,1.7496 c -0.1914,-0.0546 -0.3555,-0.1093 -0.4921,-0.1366 -0.1641,-0.0274 -0.3554,-0.0547 -0.5742,-0.0547 -0.4647,0 -0.9568,0.1913 -1.4762,0.5741 -0.5195,0.3827 -0.9569,1.0389 -1.3123,1.9684 v 7.108 z"
     fill="#ffffff"
     id="path23"
     style="fill:#071a2d;fill-opacity:1" />
  <path
     d="m 210.04584,39.5315 c -0.9842,0 -1.8863,-0.2187 -2.6792,-0.6835 -0.7928,-0.4647 -1.4216,-1.1208 -1.8863,-1.9957 -0.4648,-0.8748 -0.7108,-1.9137 -0.7108,-3.1713 0,-1.2302 0.246,-2.2964 0.7655,-3.1712 0.492,-0.8749 1.1755,-1.5583 1.9683,-1.9958 0.8202,-0.4647 1.695,-0.6834 2.6792,-0.6834 0.7382,0 1.367,0.1367 1.8864,0.3827 0.5194,0.2461 0.9842,0.5741 1.3669,0.9022 l -1.0115,1.3122 c -0.3281,-0.3007 -0.6561,-0.5194 -0.9842,-0.7108 -0.3554,-0.164 -0.7381,-0.2734 -1.1482,-0.2734 -0.6835,0 -1.2576,0.1641 -1.777,0.5195 -0.5195,0.3554 -0.9022,0.8475 -1.2029,1.4763 -0.3008,0.6288 -0.4374,1.3669 -0.4374,2.2144 0,0.8475 0.1366,1.5583 0.41,2.1871 0.2734,0.6288 0.6835,1.1209 1.2029,1.4763 0.5195,0.3554 1.0936,0.5194 1.7497,0.5194 0.4921,0 0.9842,-0.1093 1.4216,-0.3281 0.4374,-0.2187 0.8202,-0.4647 1.1756,-0.7654 l 0.8475,1.3396 c -0.4921,0.4647 -1.0662,0.8201 -1.695,1.0662 -0.6288,0.246 -1.2576,0.3827 -1.9411,0.3827 z"
     fill="#ffffff"
     id="path24"
     style="fill:#071a2d;fill-opacity:1" />
  <path
     d="m 220.48924,39.5315 c -0.9842,0 -1.8864,-0.246 -2.7065,-0.7108 -0.8202,-0.4648 -1.449,-1.1209 -1.9411,-1.9957 -0.4921,-0.8749 -0.7108,-1.9137 -0.7108,-3.144 0,-1.2029 0.2461,-2.2417 0.7108,-3.1166 0.4921,-0.8748 1.0936,-1.5583 1.8864,-2.023 0.7655,-0.4648 1.5856,-0.7108 2.4331,-0.7108 0.9569,0 1.7497,0.2187 2.4332,0.6561 0.6834,0.4374 1.1755,1.0389 1.5309,1.8317 0.3554,0.7928 0.5195,1.695 0.5195,2.7612 0,0.1914 0,0.4101 -0.0274,0.6014 -0.0273,0.1914 -0.0273,0.3554 -0.082,0.4921 h -7.8462 l -0.0273,-1.4216 h 6.2332 c 0,-1.0935 -0.2461,-1.9137 -0.7108,-2.4878 -0.4648,-0.5741 -1.1209,-0.8475 -1.9957,-0.8475 -0.5195,0 -1.0116,0.1367 -1.5037,0.4374 -0.4921,0.3008 -0.9021,0.7655 -1.2029,1.3943 -0.3007,0.6288 -0.4647,1.4489 -0.4647,2.4331 0,0.9569 0.164,1.7497 0.5194,2.3785 0.3554,0.6288 0.7928,1.0935 1.367,1.3943 0.5741,0.3007 1.1755,0.4647 1.859,0.4647 0.5467,0 1.0115,-0.082 1.4763,-0.246 0.4374,-0.164 0.8748,-0.3828 1.2849,-0.6288 l 0.7108,1.2849 c -0.4921,0.3281 -1.0389,0.6015 -1.6677,0.8202 -0.6288,0.2734 -1.3122,0.3827 -2.0777,0.3827 z"
     fill="#ffffff"
     id="path25"
     style="fill:#071a2d;fill-opacity:1" />
  <path
     d="M 227.48824,43.933 V 28.104 h 1.613 l 0.1914,1.2849 h 0.0546 c 0.4921,-0.4374 1.0663,-0.7929 1.6677,-1.0936 0.6015,-0.3007 1.2303,-0.4647 1.859,-0.4647 0.9569,0 1.7771,0.246 2.4332,0.7108 0.6561,0.4647 1.1482,1.1209 1.4763,1.9684 0.328,0.8475 0.4921,1.859 0.4921,3.0072 0,1.2576 -0.2188,2.3511 -0.6835,3.2533 -0.4374,0.9022 -1.0389,1.5856 -1.777,2.0504 -0.7382,0.4648 -1.531,0.7108 -2.3511,0.7108 -0.4921,0 -1.0116,-0.1093 -1.531,-0.3554 -0.5194,-0.2187 -1.0389,-0.5468 -1.531,-0.9295 l 0.082,1.9137 v 3.7454 h -1.9957 z m 4.6476,-6.0691 c 0.6014,0 1.1209,-0.1641 1.613,-0.5195 0.4647,-0.3554 0.8475,-0.8475 1.1209,-1.4763 0.2733,-0.6561 0.41,-1.4216 0.41,-2.3238 0,-0.8201 -0.1093,-1.5036 -0.3007,-2.105 -0.1913,-0.6015 -0.5194,-1.0662 -0.9295,-1.3943 -0.4101,-0.3281 -0.9842,-0.4921 -1.6677,-0.4921 -0.4374,0 -0.9021,0.1094 -1.3669,0.3554 -0.4647,0.2461 -0.9842,0.6288 -1.5036,1.1209 v 5.7411 c 0.4921,0.4101 0.9568,0.7108 1.4216,0.8748 0.4374,0.1367 0.8475,0.2188 1.2029,0.2188 z"
     fill="#ffffff"
     id="path26"
     style="fill:#071a2d;fill-opacity:1" />
  <path
     d="m 243.67294,39.5315 c -1.2029,0 -2.0231,-0.3554 -2.4878,-1.0389 -0.4648,-0.6835 -0.7109,-1.5856 -0.7109,-2.7065 v -6.0419 h -1.6403 v -1.5036 l 1.7497,-0.1093 0.2187,-3.1167 h 1.6403 v 3.1167 h 3.0073 v 1.6129 h -3.0073 v 6.0692 c 0,0.6835 0.1367,1.2029 0.3828,1.5583 0.246,0.3828 0.7108,0.5741 1.3396,0.5741 0.1913,0 0.41,-0.0273 0.6288,-0.082 0.2187,-0.0547 0.4374,-0.1367 0.6288,-0.2187 l 0.3554,1.4763 c -0.3008,0.1094 -0.6288,0.1914 -1.0116,0.2734 -0.3827,0.082 -0.7381,0.1367 -1.0935,0.1367 z"
     fill="#ffffff"
     id="path27"
     style="fill:#071a2d;fill-opacity:1" />
  <path
     d="m 248.92164,25.8623 c -0.3554,0 -0.6835,-0.1093 -0.9022,-0.3554 -0.246,-0.246 -0.3554,-0.5468 -0.3554,-0.9295 0,-0.3554 0.1094,-0.6561 0.3554,-0.9022 0.2461,-0.246 0.5468,-0.3554 0.9022,-0.3554 0.3827,0 0.6835,0.1094 0.9295,0.3554 0.246,0.2461 0.3554,0.5468 0.3554,0.9022 0,0.3827 -0.1094,0.6835 -0.3554,0.9295 -0.246,0.2461 -0.5468,0.3554 -0.9295,0.3554 z m -1.0115,13.396 V 28.1041 h 1.9957 v 11.1542 z"
     fill="#ffffff"
     id="path28"
     style="fill:#071a2d;fill-opacity:1" />
  <path
     d="m 257.86134,39.5313 c -0.9022,0 -1.777,-0.2187 -2.5699,-0.6835 -0.7928,-0.4648 -1.4216,-1.1209 -1.9137,-1.9957 -0.4921,-0.8749 -0.7108,-1.9137 -0.7108,-3.1713 0,-1.2302 0.2461,-2.2965 0.7108,-3.1713 0.4921,-0.8748 1.1209,-1.5583 1.9137,-1.9957 0.7929,-0.4648 1.6404,-0.6835 2.5699,-0.6835 0.9022,0 1.7497,0.2187 2.5425,0.6835 0.7928,0.4647 1.4216,1.1209 1.9137,1.9957 0.4921,0.8748 0.7381,1.9411 0.7381,3.1713 0,1.2302 -0.246,2.2964 -0.7381,3.1713 -0.4921,0.8748 -1.1209,1.5309 -1.9137,1.9957 -0.7928,0.4648 -1.6403,0.6835 -2.5425,0.6835 z m 0,-1.6404 c 0.6288,0 1.1755,-0.164 1.6403,-0.5194 0.4648,-0.3554 0.8475,-0.8475 1.0935,-1.4763 0.2461,-0.6288 0.3828,-1.3669 0.3828,-2.1871 0,-0.8475 -0.1367,-1.5856 -0.3828,-2.2144 -0.246,-0.6288 -0.6014,-1.1209 -1.0935,-1.4763 -0.4648,-0.3554 -1.0115,-0.5194 -1.6403,-0.5194 -0.6288,0 -1.1756,0.164 -1.6403,0.5194 -0.4648,0.3554 -0.8475,0.8475 -1.0936,1.4763 -0.2734,0.6288 -0.3827,1.3669 -0.3827,2.2144 0,0.8475 0.1367,1.5583 0.3827,2.1871 0.2461,0.6288 0.6288,1.1209 1.0936,1.4763 0.4647,0.3281 1.0388,0.5194 1.6403,0.5194 z"
     fill="#ffffff"
     id="path29"
     style="fill:#071a2d;fill-opacity:1" />
  <path
     d="M 265.84424,39.2579 V 28.1037 h 1.613 l 0.1913,1.613 h 0.0547 c 0.5468,-0.5468 1.0936,-0.9842 1.695,-1.3396 0.6015,-0.3554 1.2849,-0.5468 2.0504,-0.5468 1.2033,0 2.0503,0.3828 2.5973,1.1209 0.547,0.7382 0.82,1.8317 0.82,3.2533 v 7.0534 h -1.996 v -6.8073 c 0,-1.0116 -0.164,-1.7497 -0.492,-2.2145 -0.328,-0.4647 -0.847,-0.6834 -1.5581,-0.6834 -0.5741,0 -1.0662,0.1366 -1.5036,0.41 -0.4374,0.2734 -0.9295,0.7108 -1.4763,1.2576 v 8.0376 z"
     fill="#ffffff"
     id="path30"
     style="fill:#071a2d;fill-opacity:1" />
  <path
     d="m 281.23594,39.5313 c -0.793,0 -1.558,-0.1367 -2.296,-0.4375 -0.739,-0.3007 -1.367,-0.6561 -1.887,-1.1208 l 0.957,-1.285 c 0.492,0.3828 0.984,0.6835 1.504,0.9296 0.519,0.246 1.093,0.3554 1.749,0.3554 0.711,0 1.258,-0.1641 1.613,-0.4921 0.356,-0.3281 0.547,-0.7108 0.547,-1.1756 0,-0.3827 -0.137,-0.7108 -0.383,-0.9568 -0.246,-0.2461 -0.574,-0.4648 -0.956,-0.6288 -0.383,-0.1641 -0.793,-0.3281 -1.203,-0.4921 -0.52,-0.1914 -1.039,-0.4101 -1.531,-0.6562 -0.492,-0.246 -0.93,-0.6014 -1.258,-1.0115 -0.328,-0.4101 -0.492,-0.9295 -0.492,-1.5583 0,-0.9022 0.355,-1.6677 1.039,-2.2691 0.683,-0.6015 1.64,-0.9022 2.843,-0.9022 0.711,0 1.367,0.1367 1.969,0.3828 0.601,0.246 1.093,0.5467 1.53,0.8748 l -0.929,1.2849 c -0.383,-0.3007 -0.766,-0.5194 -1.176,-0.7108 -0.41,-0.1914 -0.847,-0.2734 -1.339,-0.2734 -0.684,0 -1.203,0.1641 -1.531,0.4648 -0.328,0.3007 -0.492,0.6834 -0.492,1.0935 0,0.3554 0.109,0.6288 0.355,0.8475 0.246,0.2187 0.547,0.4101 0.902,0.5741 0.383,0.1641 0.766,0.3281 1.203,0.4648 0.52,0.1914 1.039,0.4101 1.559,0.6835 0.519,0.246 0.956,0.5741 1.284,1.0115 0.356,0.4101 0.52,0.9842 0.52,1.695 0,0.6014 -0.164,1.1756 -0.465,1.6676 -0.301,0.4921 -0.765,0.9022 -1.394,1.2029 -0.602,0.2734 -1.34,0.4375 -2.242,0.4375 z"
     fill="#ffffff"
     id="path31"
     style="fill:#071a2d;fill-opacity:1" />
</svg>
