<svg width="30" height="40" viewBox="0 0 30 40" fill="none" xmlns="http://www.w3.org/2000/svg">
<path d="M18.1528 39.4773L21.4335 28.5965C20.0119 27.8037 19.0277 26.3001 19.0277 24.5504C19.0277 22.0079 21.0781 19.9575 23.6206 19.9575C26.1631 19.9575 28.2135 22.0079 28.2135 24.5504C28.2135 26.3001 27.2566 27.8037 25.8077 28.5965L29.0883 39.4773H18.1528Z" fill="white"/>
<path d="M6.39746 24.55V24.9874H8.44786V24.55C8.44786 16.157 15.2552 9.34972 23.6482 9.34972H26.382V7.29932H23.6482C14.1343 7.29932 6.39746 15.0088 6.39746 24.55Z" fill="white"/>
<path d="M12.6577 24.5502V24.9876H14.7081V24.5502C14.7081 19.6019 18.7269 15.5831 23.6479 15.5831H26.3817V13.5327H23.6479C17.5787 13.5327 12.6577 18.4537 12.6577 24.5502Z" fill="white"/>
<path d="M23.6479 0.847168V0.901845C10.5801 0.874507 0 11.4819 0 24.5498V24.9872H2.0504V24.5498C2.0504 12.6301 11.7283 2.95224 23.6479 2.95224V2.89757H26.3818V0.847168H23.6479Z" fill="white"/>
</svg>