<svg width="131" height="40" viewBox="0 0 131 40" fill="none" xmlns="http://www.w3.org/2000/svg">
<path d="M11.4555 39.0124V7.68235H0.547363V0.984375H30.6199V7.68235H19.6571V39.0124H11.4555Z" fill="white"/>
<path d="M28.2139 39.0115L40.6803 0.983398H50.4402L62.8519 39.0115H54.1583L48.7725 19.437C48.2258 17.4959 47.6516 15.4455 47.1322 13.3131C46.5854 11.1807 46.0387 9.10298 45.4919 7.07992H45.2458C44.7538 9.10298 44.2617 11.1807 43.7149 13.3131C43.1681 15.4455 42.6213 17.4959 42.0746 19.437L36.6342 39.0115H28.2139ZM36.1421 29.525V23.3464H54.8417V29.525H36.1421Z" fill="white"/>
<path d="M68.4839 39.0115V0.983398H81.5518C84.4223 0.983398 87.0195 1.36614 89.3433 2.13162C91.6671 2.8971 93.4988 4.12734 94.893 5.87702C96.26 7.62669 96.9708 10.0052 96.9708 13.0397C96.9708 15.9376 96.2873 18.3434 94.9204 20.2298C93.5534 22.1162 91.7217 23.5104 89.4253 24.3853C87.1289 25.2875 84.5864 25.7249 81.7978 25.7249H76.7128V39.0115H68.4839ZM76.7128 19.3823H81.2784C83.8755 19.3823 85.7893 18.8355 87.0742 17.7693C88.3318 16.7031 88.9605 15.1175 88.9605 13.0124C88.9605 10.9073 88.3044 9.43104 86.9648 8.58354C85.6252 7.73605 83.6568 7.29863 81.0597 7.29863H76.7402V19.3823H76.7128Z" fill="white"/>
<path d="M101.564 39.0115V0.983398H114.632C117.502 0.983398 120.1 1.36614 122.423 2.13162C124.747 2.8971 126.579 4.12734 127.973 5.87702C129.34 7.62669 130.051 10.0052 130.051 13.0397C130.051 15.9376 129.367 18.3434 128 20.2298C126.634 22.1162 124.802 23.5104 122.505 24.3853C120.209 25.2875 117.666 25.7249 114.878 25.7249H109.793V39.0115H101.564ZM109.766 19.3823H114.331C116.928 19.3823 118.842 18.8355 120.127 17.7693C121.384 16.7031 122.013 15.1175 122.013 13.0124C122.013 10.9073 121.357 9.43104 120.018 8.58354C118.678 7.73605 116.71 7.29863 114.112 7.29863H109.793V19.3823H109.766Z" fill="white"/>
</svg>