<svg width="200" height="44" viewBox="0 0 200 44" fill="none" xmlns="http://www.w3.org/2000/svg">
<path d="M4.9933 16.2941V2.98015H0.482422V1.28516H11.5272V2.98015H7.01635V16.2941H4.9933Z" fill="white"/>
<path d="M13.0854 16.2938V5.1396H14.6984L14.8898 7.19H14.9445C15.3546 6.47919 15.8193 5.90508 16.3661 5.495C16.9129 5.08492 17.5143 4.86621 18.1158 4.86621C18.3618 4.86621 18.5805 4.89355 18.7719 4.92089C18.9633 4.94823 19.1546 5.0029 19.3187 5.08492L18.9633 6.83459C18.7719 6.77992 18.6079 6.72524 18.4712 6.6979C18.3071 6.67056 18.1158 6.64322 17.8971 6.64322C17.4323 6.64322 16.9402 6.83459 16.4208 7.21733C15.9013 7.60008 15.4639 8.2562 15.1085 9.18572V16.2938H13.0854Z" fill="white"/>
<path d="M23.5834 16.5677C22.9546 16.5677 22.4078 16.431 21.8884 16.1849C21.3963 15.9389 21.0135 15.5561 20.7128 15.0914C20.4394 14.5993 20.3027 14.0525 20.3027 13.3964C20.3027 12.1935 20.8495 11.264 21.9431 10.6078C23.0366 9.9517 24.7589 9.51428 27.11 9.26823C27.11 8.80348 27.0554 8.33872 26.9187 7.92864C26.8093 7.51856 26.5633 7.16316 26.2352 6.91711C25.9072 6.67106 25.4424 6.53437 24.8683 6.53437C24.2395 6.53437 23.638 6.67106 23.0639 6.91711C22.5172 7.16316 21.9977 7.43654 21.5603 7.73727L20.7948 6.39767C21.1502 6.17896 21.5603 5.93292 21.9977 5.71421C22.4625 5.4955 22.9546 5.30413 23.474 5.1401C24.0208 5.0034 24.5676 4.92139 25.169 4.92139C26.0712 4.92139 26.8367 5.11276 27.4108 5.4955C27.9849 5.87824 28.4223 6.39767 28.6684 7.10848C28.9417 7.79195 29.0784 8.61211 29.0784 9.56896V16.3763H27.4655L27.2741 15.0367H27.2194C26.6726 15.4741 26.1259 15.8568 25.4971 16.1576C24.923 16.4036 24.2668 16.5677 23.5834 16.5677ZM24.1575 14.982C24.7043 14.982 25.1964 14.8727 25.6338 14.6266C26.0985 14.3806 26.5906 14.0252 27.11 13.5604V10.5258C25.9071 10.6898 24.9503 10.8812 24.2395 11.1273C23.5287 11.3733 23.0093 11.674 22.7085 12.0294C22.4078 12.3848 22.2438 12.7949 22.2438 13.2597C22.2438 13.8611 22.4352 14.2985 22.8179 14.5719C23.2006 14.8453 23.638 14.982 24.1575 14.982Z" fill="white"/>
<path d="M32.4688 16.2938V5.1396H34.0817L34.2731 6.75258H34.3278C34.8745 6.20581 35.4213 5.76839 36.0228 5.41298C36.6242 5.05758 37.3077 4.86621 38.0732 4.86621C39.2761 4.86621 40.1236 5.24895 40.6703 5.9871C41.2171 6.72524 41.4905 7.81879 41.4905 9.2404V16.2938H39.4948V9.48644C39.4948 8.47491 39.3307 7.73677 39.0027 7.27201C38.6746 6.80726 38.1552 6.58855 37.4444 6.58855C36.8703 6.58855 36.3782 6.72524 35.9408 6.99863C35.5033 7.27201 35.0112 7.70943 34.4645 8.2562V16.2938H32.4688Z" fill="white"/>
<path d="M47.8601 16.5672C47.0672 16.5672 46.3017 16.4305 45.5636 16.1297C44.8255 15.829 44.1967 15.4736 43.6772 15.0089L44.6341 13.7239C45.1262 14.1067 45.6183 14.4074 46.1377 14.6535C46.6572 14.8995 47.2313 15.0089 47.8874 15.0089C48.5982 15.0089 49.145 14.8448 49.5004 14.5168C49.8558 14.1887 50.0471 13.806 50.0471 13.3412C50.0471 12.9585 49.9104 12.6304 49.6644 12.3843C49.4184 12.1383 49.0903 11.9196 48.7075 11.7556C48.3248 11.5915 47.9147 11.4275 47.5047 11.2635C46.9852 11.0721 46.4658 10.8534 45.9737 10.6073C45.4816 10.3613 45.0442 10.0059 44.7161 9.5958C44.388 9.18572 44.224 8.66628 44.224 8.0375C44.224 7.13532 44.5794 6.36984 45.2629 5.76839C45.9464 5.16694 46.9032 4.86621 48.1061 4.86621C48.8169 4.86621 49.473 5.0029 50.0745 5.24895C50.6759 5.495 51.168 5.79573 51.6055 6.12379L50.6759 7.40871C50.2932 7.10798 49.9105 6.88927 49.5004 6.6979C49.0903 6.50653 48.6529 6.42451 48.1608 6.42451C47.4773 6.42451 46.9579 6.58855 46.6298 6.88927C46.3018 7.19 46.1377 7.57274 46.1377 7.98282C46.1377 8.33822 46.2471 8.61161 46.4931 8.83032C46.7392 9.04903 47.0399 9.2404 47.3953 9.40443C47.778 9.56846 48.1608 9.73249 48.5982 9.86918C49.1176 10.0606 49.6371 10.2793 50.1565 10.5527C50.6759 10.7987 51.1134 11.1268 51.4414 11.5642C51.7968 11.9743 51.9609 12.5484 51.9609 13.2592C51.9609 13.8606 51.7968 14.4347 51.4961 14.9268C51.1954 15.4189 50.7306 15.829 50.1018 16.1297C49.473 16.4305 48.7349 16.5672 47.8601 16.5672Z" fill="white"/>
<path d="M57.4017 16.5677C56.7729 16.5677 56.2262 16.431 55.7067 16.1849C55.2146 15.9389 54.8319 15.5561 54.5312 15.0914C54.2578 14.5993 54.1211 14.0525 54.1211 13.3964C54.1211 12.1935 54.6679 11.264 55.7614 10.6078C56.855 9.9517 58.5773 9.51428 60.9284 9.26823C60.9284 8.80348 60.8737 8.33872 60.737 7.92864C60.6277 7.51856 60.3816 7.16316 60.0536 6.91711C59.7255 6.67106 59.2607 6.53437 58.6866 6.53437C58.0578 6.53437 57.4564 6.67106 56.8823 6.91711C56.3355 7.16316 55.8161 7.43654 55.3787 7.73727L54.6132 6.39767C54.9686 6.17896 55.3787 5.93292 55.8161 5.71421C56.2808 5.4955 56.7729 5.30413 57.2924 5.1401C57.8391 5.0034 58.3859 4.92139 58.9874 4.92139C59.8895 4.92139 60.655 5.11276 61.2291 5.4955C61.8033 5.87824 62.2407 6.39767 62.4867 7.10848C62.7601 7.79195 62.8968 8.61211 62.8968 9.56896V16.3763H61.2838L61.0925 15.0367H61.0378C60.491 15.4741 59.9442 15.8568 59.3154 16.1576C58.7413 16.4036 58.0852 16.5677 57.4017 16.5677ZM57.9758 14.982C58.5226 14.982 59.0147 14.8727 59.4521 14.6266C59.9169 14.3806 60.409 14.0252 60.9284 13.5604V10.5258C59.7255 10.6898 58.7687 10.8812 58.0578 11.1273C57.347 11.3733 56.8276 11.674 56.5269 12.0294C56.2262 12.3848 56.0621 12.7949 56.0621 13.2597C56.0621 13.8611 56.2535 14.2985 56.6362 14.5719C56.9916 14.8453 57.4564 14.982 57.9758 14.982Z" fill="white"/>
<path d="M69.8136 16.5671C68.6107 16.5671 67.7905 16.2117 67.3257 15.5283C66.861 14.8448 66.6149 13.9426 66.6149 12.8217V6.77988H64.9746V5.27625L66.7243 5.1669L66.943 2.05029H68.5833V5.1669H71.5906V6.77988H68.5833V12.8491C68.5833 13.5325 68.72 14.052 68.9661 14.4074C69.2121 14.7901 69.6769 14.9815 70.3056 14.9815C70.497 14.9815 70.7157 14.9541 70.9344 14.8995C71.1532 14.8448 71.3719 14.7628 71.5632 14.6808L71.9186 16.157C71.6179 16.2664 71.2898 16.3484 70.9071 16.4304C70.5517 16.5398 70.1963 16.5671 69.8136 16.5671Z" fill="white"/>
<path d="M76.0465 16.5672C75.5544 16.5672 75.1717 16.4579 74.8436 16.2665C74.5429 16.0478 74.3241 15.7744 74.1875 15.3917C74.0508 15.0089 73.9688 14.5442 73.9688 13.97V0H75.9645V14.1067C75.9645 14.4075 76.0192 14.5988 76.1285 14.7355C76.2379 14.8722 76.3472 14.9269 76.4839 14.9269C76.5386 14.9269 76.5933 14.9269 76.6479 14.9269C76.7026 14.9269 76.7846 14.8996 76.894 14.8996L77.14 16.4032C77.0307 16.4579 76.8667 16.4852 76.6753 16.5399C76.5386 16.5399 76.3199 16.5672 76.0465 16.5672Z" fill="white"/>
<path d="M82.307 16.5677C81.6782 16.5677 81.1314 16.431 80.612 16.1849C80.1199 15.9389 79.7372 15.5561 79.4364 15.0914C79.1631 14.5993 79.0264 14.0525 79.0264 13.3964C79.0264 12.1935 79.5731 11.264 80.6667 10.6078C81.7602 9.9517 83.4826 9.51428 85.8337 9.26823C85.8337 8.80348 85.779 8.33872 85.6423 7.92864C85.533 7.51856 85.2869 7.16316 84.9589 6.91711C84.6308 6.67106 84.166 6.53437 83.5919 6.53437C82.9631 6.53437 82.3617 6.67106 81.7876 6.91711C81.2408 7.16316 80.7214 7.43654 80.2839 7.73727L79.5185 6.39767C79.8739 6.17896 80.2839 5.93292 80.7214 5.71421C81.1861 5.4955 81.6782 5.30413 82.1976 5.1401C82.7444 5.0034 83.2912 4.92139 83.8926 4.92139C84.7948 4.92139 85.5603 5.11276 86.1344 5.4955C86.7085 5.87824 87.1459 6.39767 87.392 7.10848C87.6654 7.79195 87.8021 8.61211 87.8021 9.56896V16.3763H86.1891L85.9977 15.0367H85.943C85.3963 15.4741 84.8495 15.8568 84.2207 16.1576C83.6466 16.4036 83.0178 16.5677 82.307 16.5677ZM82.8811 14.982C83.4279 14.982 83.92 14.8727 84.3574 14.6266C84.8222 14.3806 85.3143 14.0252 85.8337 13.5604V10.5258C84.6308 10.6898 83.6739 10.8812 82.9631 11.1273C82.2523 11.3733 81.7329 11.674 81.4322 12.0294C81.1314 12.3848 80.9674 12.7949 80.9674 13.2597C80.9674 13.8611 81.1588 14.2985 81.5415 14.5719C81.9243 14.8453 82.3617 14.982 82.8811 14.982Z" fill="white"/>
<path d="M91.3833 16.2938V5.1396H92.9963L93.1876 6.75258H93.2423C93.7891 6.20581 94.3359 5.76839 94.9373 5.41298C95.5388 5.05758 96.2222 4.86621 96.9877 4.86621C98.1906 4.86621 99.0381 5.24895 99.5849 5.9871C100.132 6.72524 100.405 7.81879 100.405 9.2404V16.2938H98.4093V9.48644C98.4093 8.47491 98.2453 7.73677 97.9172 7.27201C97.5892 6.80726 97.0697 6.58855 96.3589 6.58855C95.7848 6.58855 95.2927 6.72524 94.8553 6.99863C94.4179 7.27201 93.9258 7.70943 93.379 8.2562V16.2938H91.3833Z" fill="white"/>
<path d="M107.349 16.5671C106.146 16.5671 105.326 16.2117 104.861 15.5283C104.397 14.8448 104.151 13.9426 104.151 12.8217V6.77988H102.51V5.27625L104.26 5.1669L104.479 2.05029H106.119V5.1669H109.126V6.77988H106.119V12.8491C106.119 13.5325 106.256 14.052 106.502 14.4074C106.748 14.7901 107.213 14.9815 107.841 14.9815C108.033 14.9815 108.251 14.9541 108.47 14.8995C108.689 14.8448 108.907 14.7628 109.099 14.6808L109.454 16.157C109.154 16.2664 108.825 16.3484 108.443 16.4304C108.087 16.5398 107.732 16.5671 107.349 16.5671Z" fill="white"/>
<path d="M112.708 2.89796C112.352 2.89796 112.024 2.78861 111.806 2.54256C111.56 2.29651 111.45 1.99579 111.45 1.61305C111.45 1.25764 111.56 0.956919 111.806 0.710871C112.052 0.464823 112.352 0.355469 112.708 0.355469C113.091 0.355469 113.391 0.464823 113.637 0.710871C113.883 0.956919 113.993 1.25764 113.993 1.61305C113.993 1.99579 113.883 2.29651 113.637 2.54256C113.419 2.78861 113.091 2.89796 112.708 2.89796ZM111.724 16.2939V5.13973H113.719V16.2939H111.724Z" fill="white"/>
<path d="M121.702 16.5669C120.718 16.5669 119.816 16.3482 119.023 15.8834C118.23 15.4187 117.601 14.7626 117.137 13.8877C116.672 13.0129 116.426 11.974 116.426 10.7164C116.426 9.4862 116.672 8.41999 117.191 7.54516C117.683 6.67032 118.367 5.98685 119.16 5.54943C119.98 5.08468 120.855 4.86597 121.839 4.86597C122.577 4.86597 123.206 5.00266 123.725 5.24871C124.245 5.49476 124.709 5.82282 125.092 6.15088L124.081 7.46314C123.753 7.16241 123.424 6.94371 123.096 6.75233C122.741 6.5883 122.358 6.47895 121.948 6.47895C121.265 6.47895 120.691 6.64298 120.171 6.99838C119.652 7.35378 119.269 7.84588 118.968 8.47467C118.668 9.10346 118.531 9.8416 118.531 10.6891C118.531 11.5366 118.668 12.2474 118.941 12.8762C119.214 13.505 119.624 13.9971 120.144 14.3525C120.663 14.7079 121.237 14.8719 121.894 14.8719C122.386 14.8719 122.878 14.7626 123.315 14.5439C123.753 14.3251 124.135 14.0791 124.491 13.7784L125.338 15.118C124.846 15.5827 124.272 15.9381 123.643 16.1842C123.014 16.4302 122.386 16.5669 121.702 16.5669Z" fill="white"/>
<path d="M132.665 16.2941V1.28516H137.012C138.133 1.28516 139.117 1.42185 139.964 1.69524C140.812 1.96862 141.468 2.43338 141.96 3.08951C142.452 3.74564 142.671 4.62047 142.671 5.71402C142.671 6.78023 142.425 7.65506 141.96 8.33853C141.495 9.022 140.839 9.54143 139.992 9.86949C139.144 10.1976 138.187 10.3616 137.121 10.3616H134.688V16.2667H132.665V16.2941ZM134.661 8.77595H136.848C138.133 8.77595 139.09 8.5299 139.718 8.0378C140.347 7.54571 140.648 6.78023 140.648 5.71402C140.648 4.64781 140.32 3.93701 139.664 3.52693C139.008 3.11685 138.051 2.89814 136.739 2.89814H134.661V8.77595Z" fill="white"/>
<path d="M145.377 16.2935V5.13935H146.99L147.182 7.18975H147.236C147.647 6.47895 148.111 5.90484 148.658 5.49476C149.205 5.08468 149.806 4.86597 150.408 4.86597C150.654 4.86597 150.873 4.89331 151.064 4.92064C151.255 4.94798 151.447 5.00266 151.611 5.08468L151.255 6.83435C151.064 6.77967 150.9 6.725 150.763 6.69766C150.599 6.67032 150.408 6.64298 150.189 6.64298C149.724 6.64298 149.232 6.83435 148.713 7.21709C148.193 7.59983 147.756 8.25596 147.401 9.18547V16.2935H145.377Z" fill="white"/>
<path d="M154.317 2.89796C153.962 2.89796 153.634 2.78861 153.415 2.54256C153.169 2.29651 153.06 1.99579 153.06 1.61305C153.06 1.25764 153.169 0.956919 153.415 0.710871C153.661 0.464823 153.962 0.355469 154.317 0.355469C154.7 0.355469 155.001 0.464823 155.247 0.710871C155.493 0.956919 155.602 1.25764 155.602 1.61305C155.602 1.99579 155.493 2.29651 155.247 2.54256C155.001 2.78861 154.7 2.89796 154.317 2.89796ZM153.306 16.2939V5.13973H155.301V16.2939H153.306Z" fill="white"/>
<path d="M161.316 16.2933L157.297 5.13916H159.348L161.398 11.3997C161.562 11.9465 161.726 12.4933 161.918 13.0674C162.082 13.6141 162.273 14.1609 162.437 14.7077H162.519C162.683 14.1609 162.847 13.6415 163.011 13.0674C163.175 12.5206 163.367 11.9465 163.531 11.3997L165.581 5.13916H167.522L163.613 16.2933H161.316Z" fill="white"/>
<path d="M172.142 16.5674C171.513 16.5674 170.966 16.4307 170.447 16.1847C169.955 15.9386 169.572 15.5559 169.271 15.0911C168.998 14.599 168.861 14.0523 168.861 13.3961C168.861 12.1932 169.408 11.2637 170.502 10.6076C171.595 9.95146 173.318 9.51404 175.669 9.26799C175.669 8.80323 175.614 8.33847 175.477 7.92839C175.368 7.51832 175.122 7.16291 174.794 6.91686C174.466 6.67082 174.001 6.53412 173.427 6.53412C172.798 6.53412 172.197 6.67082 171.623 6.91686C171.076 7.16291 170.556 7.4363 170.119 7.73702L169.353 6.39743C169.709 6.17872 170.119 5.93267 170.556 5.71396C171.021 5.49525 171.513 5.30388 172.033 5.13985C172.579 5.00316 173.126 4.92114 173.728 4.92114C174.63 4.92114 175.395 5.11251 175.969 5.49525C176.543 5.878 176.981 6.39743 177.227 7.10824C177.5 7.7917 177.637 8.61186 177.637 9.56871V16.376H176.024L175.833 15.0364H175.778C175.231 15.4739 174.684 15.8566 174.056 16.1573C173.482 16.4034 172.825 16.5674 172.142 16.5674ZM172.716 14.9818C173.263 14.9818 173.755 14.8724 174.192 14.6264C174.657 14.3803 175.149 14.0249 175.669 13.5602V10.5256C174.466 10.6896 173.509 10.881 172.798 11.127C172.087 11.3731 171.568 11.6738 171.267 12.0292C170.966 12.3846 170.802 12.7947 170.802 13.2594C170.802 13.8609 170.994 14.2983 171.377 14.5717C171.759 14.8451 172.197 14.9818 172.716 14.9818Z" fill="white"/>
<path d="M185.456 16.5669C184.472 16.5669 183.57 16.3482 182.777 15.8834C181.984 15.4187 181.355 14.7626 180.89 13.8877C180.426 13.0129 180.18 11.974 180.18 10.7164C180.18 9.4862 180.426 8.41999 180.945 7.54516C181.437 6.67032 182.121 5.98685 182.914 5.54943C183.734 5.08468 184.609 4.86597 185.593 4.86597C186.331 4.86597 186.96 5.00266 187.479 5.24871C187.999 5.49476 188.463 5.82282 188.846 6.15088L187.835 7.46314C187.506 7.16241 187.178 6.94371 186.85 6.75233C186.495 6.5883 186.112 6.47895 185.702 6.47895C185.019 6.47895 184.445 6.64298 183.925 6.99838C183.406 7.35378 183.023 7.84588 182.722 8.47467C182.421 9.10346 182.285 9.8416 182.285 10.6891C182.285 11.5366 182.421 12.2474 182.695 12.8762C182.968 13.505 183.378 13.9971 183.898 14.3525C184.417 14.7079 184.991 14.8719 185.647 14.8719C186.14 14.8719 186.632 14.7626 187.069 14.5439C187.506 14.3251 187.889 14.0791 188.245 13.7784L189.092 15.118C188.6 15.5827 188.026 15.9381 187.397 16.1842C186.768 16.4302 186.14 16.5669 185.456 16.5669Z" fill="white"/>
<path d="M191.607 21.0503C191.334 21.0503 191.115 21.0229 190.896 20.9682C190.678 20.9136 190.486 20.8589 190.267 20.8042L190.65 19.2459C190.76 19.2732 190.896 19.3006 191.06 19.3553C191.224 19.3826 191.361 19.4099 191.498 19.4099C192.127 19.4099 192.646 19.1912 193.056 18.7538C193.466 18.3164 193.767 17.7423 193.986 17.0862L194.232 16.2933L189.775 5.13916H191.826L194.04 11.2083C194.232 11.7004 194.396 12.2199 194.587 12.7666C194.778 13.3134 194.942 13.8329 195.106 14.3796H195.188C195.352 13.8602 195.517 13.3408 195.681 12.794C195.845 12.2472 195.981 11.7278 196.145 11.2357L198.059 5.1665H200L195.845 17.1955C195.571 17.9337 195.243 18.6171 194.888 19.1912C194.532 19.7653 194.068 20.2301 193.548 20.5855C193.029 20.8862 192.373 21.0503 191.607 21.0503Z" fill="white"/>
<path d="M1.87646 39.2584V24.2495H6.22332C7.3442 24.2495 8.32839 24.3862 9.17589 24.6596C10.0234 24.933 10.6795 25.3977 11.1716 26.0539C11.6637 26.71 11.8824 27.5848 11.8824 28.6784C11.8824 29.7446 11.6364 30.6194 11.1716 31.3029C10.7069 31.9864 10.0507 32.5058 9.20322 32.8338C8.35572 33.1619 7.39887 33.3259 6.33266 33.3259H3.89953V39.2311H1.87646V39.2584ZM3.89953 31.713H6.08662C7.37154 31.713 8.32839 31.4669 8.95718 30.9748C9.58597 30.4827 9.88669 29.7172 9.88669 28.651C9.88669 27.5848 9.55863 26.874 8.9025 26.4639C8.24637 26.0539 7.28952 25.8352 5.97726 25.8352H3.89953V31.713Z" fill="white"/>
<path d="M19.1274 39.5315C18.1432 39.5315 17.2411 39.2855 16.4209 38.8207C15.6007 38.3559 14.972 37.6998 14.4799 36.825C13.9878 35.9501 13.769 34.9113 13.769 33.681C13.769 32.4781 14.0151 31.4393 14.4799 30.5644C14.972 29.6896 15.5734 29.0061 16.3662 28.5414C17.1317 28.0766 17.9519 27.8306 18.7994 27.8306C19.7562 27.8306 20.549 28.0493 21.2325 28.4867C21.916 28.9241 22.4081 29.5256 22.7635 30.3184C23.1189 31.1112 23.2829 32.0134 23.2829 33.0796C23.2829 33.271 23.2829 33.4897 23.2556 33.681C23.2282 33.8724 23.2282 34.0364 23.1735 34.1731H15.3273L15.3 32.7515H21.5332C21.5332 31.658 21.2872 30.8378 20.8224 30.2637C20.3577 29.6896 19.7015 29.4162 18.8267 29.4162C18.3073 29.4162 17.8152 29.5529 17.3231 29.8536C16.831 30.1544 16.4209 30.6191 16.1202 31.2479C15.8195 31.8767 15.6554 32.6968 15.6554 33.681C15.6554 34.6379 15.8194 35.4307 16.1748 36.0595C16.5302 36.6883 16.9677 37.153 17.5418 37.4538C18.1159 37.7545 18.7173 37.9185 19.4008 37.9185C19.9476 37.9185 20.4123 37.8365 20.8771 37.6725C21.3145 37.5085 21.7519 37.2897 22.162 37.0437L22.8728 38.3286C22.3807 38.6567 21.8339 38.9301 21.2052 39.1488C20.549 39.4222 19.8656 39.5315 19.1274 39.5315Z" fill="white"/>
<path d="M26.2354 39.2581V28.104H27.8483L28.0397 30.1544H28.0944C28.5045 29.4435 28.9692 28.8694 29.516 28.4594C30.0628 28.0493 30.6642 27.8306 31.2657 27.8306C31.5117 27.8306 31.7304 27.8579 31.9218 27.8852C32.1132 27.9126 32.3045 27.9673 32.4686 28.0493L32.1132 29.7989C31.9218 29.7443 31.7577 29.6896 31.6211 29.6623C31.457 29.6349 31.2657 29.6076 31.0469 29.6076C30.5822 29.6076 30.0901 29.7989 29.5707 30.1817C29.0512 30.5644 28.6138 31.2206 28.2584 32.1501V39.2581H26.2354Z" fill="white"/>
<path d="M38.5649 39.5315C37.5807 39.5315 36.6786 39.3128 35.8857 38.848C35.0929 38.3833 34.4641 37.7272 33.9994 36.8523C33.5346 35.9775 33.2886 34.9386 33.2886 33.681C33.2886 32.4508 33.5346 31.3846 34.0541 30.5098C34.5461 29.6349 35.2296 28.9515 36.0224 28.514C36.8426 28.0493 37.7174 27.8306 38.7016 27.8306C39.4398 27.8306 40.0686 27.9673 40.588 28.2133C41.1074 28.4594 41.5722 28.7874 41.9549 29.1155L40.9434 30.4277C40.6153 30.127 40.2873 29.9083 39.9592 29.7169C39.6038 29.5529 39.2211 29.4435 38.811 29.4435C38.1275 29.4435 37.5534 29.6076 37.034 29.963C36.5145 30.3184 36.1318 30.8105 35.8311 31.4393C35.5303 32.0681 35.3937 32.8062 35.3937 33.6537C35.3937 34.5012 35.5303 35.212 35.8037 35.8408C36.0771 36.4696 36.4872 36.9617 37.0066 37.3171C37.5261 37.6725 38.1002 37.8365 38.7563 37.8365C39.2484 37.8365 39.7405 37.7272 40.1779 37.5084C40.6153 37.2897 40.9981 37.0437 41.3535 36.743L42.201 38.0826C41.7089 38.5473 41.1348 38.9027 40.506 39.1488C39.8772 39.3948 39.2484 39.5315 38.5649 39.5315Z" fill="white"/>
<path d="M49.0083 39.5315C48.0241 39.5315 47.1219 39.2855 46.3018 38.8207C45.4816 38.3559 44.8528 37.6998 44.3607 36.825C43.8686 35.9501 43.6499 34.9113 43.6499 33.681C43.6499 32.4781 43.896 31.4393 44.3607 30.5644C44.8528 29.6896 45.4543 29.0061 46.2471 28.5414C47.0126 28.0766 47.8327 27.8306 48.6802 27.8306C49.6371 27.8306 50.4299 28.0493 51.1134 28.4867C51.7968 28.9241 52.2889 29.5256 52.6443 30.3184C52.9997 31.1112 53.1638 32.0134 53.1638 33.0796C53.1638 33.271 53.1638 33.4897 53.1364 33.681C53.1091 33.8724 53.1091 34.0364 53.0544 34.1731H45.2082L45.1809 32.7515H51.4141C51.4141 31.658 51.168 30.8378 50.7033 30.2637C50.2385 29.6896 49.5824 29.4162 48.7076 29.4162C48.1881 29.4162 47.696 29.5529 47.2039 29.8536C46.7118 30.1544 46.3018 30.6191 46.001 31.2479C45.7003 31.8767 45.5363 32.6968 45.5363 33.681C45.5363 34.6379 45.7003 35.4307 46.0557 36.0595C46.4111 36.6883 46.8485 37.153 47.4227 37.4538C47.9968 37.7545 48.5982 37.9185 49.2817 37.9185C49.8284 37.9185 50.2932 37.8365 50.758 37.6725C51.1954 37.5085 51.6328 37.2897 52.0429 37.0437L52.7537 38.3286C52.2616 38.6567 51.7148 38.9301 51.086 39.1488C50.4572 39.4222 49.7738 39.5315 49.0083 39.5315Z" fill="white"/>
<path d="M56.0073 43.933V28.104H57.6203L57.8117 29.3889H57.8663C58.3584 28.9515 58.9326 28.596 59.534 28.2953C60.1355 27.9946 60.7643 27.8306 61.393 27.8306C62.3499 27.8306 63.1701 28.0766 63.8262 28.5414C64.4823 29.0061 64.9744 29.6623 65.3025 30.5098C65.6305 31.3573 65.7946 32.3688 65.7946 33.517C65.7946 34.7746 65.5758 35.8681 65.1111 36.7703C64.6737 37.6725 64.0722 38.3559 63.3341 38.8207C62.5959 39.2855 61.8031 39.5315 60.983 39.5315C60.4909 39.5315 59.9714 39.4222 59.452 39.1761C58.9326 38.9574 58.4131 38.6293 57.921 38.2466L58.003 40.1603V43.9057H56.0073V43.933ZM60.6549 37.8639C61.2563 37.8639 61.7758 37.6998 62.2679 37.3444C62.7326 36.989 63.1154 36.4969 63.3888 35.8681C63.6621 35.212 63.7988 34.4465 63.7988 33.5443C63.7988 32.7242 63.6895 32.0407 63.4981 31.4393C63.3068 30.8378 62.9787 30.3731 62.5686 30.045C62.1585 29.7169 61.5844 29.5529 60.9009 29.5529C60.4635 29.5529 59.9988 29.6623 59.534 29.9083C59.0693 30.1544 58.5498 30.5371 58.0304 31.0292V36.7703C58.5225 37.1804 58.9872 37.4811 59.452 37.6451C59.8894 37.7818 60.2995 37.8639 60.6549 37.8639Z" fill="white"/>
<path d="M72.192 39.5315C70.9891 39.5315 70.1689 39.1761 69.7042 38.4926C69.2394 37.8091 68.9933 36.907 68.9933 35.7861V29.7442H67.353V28.2406L69.1027 28.1313L69.3214 25.0146H70.9617V28.1313H73.969V29.7442H70.9617V35.8134C70.9617 36.4969 71.0984 37.0163 71.3445 37.3717C71.5905 37.7545 72.0553 37.9458 72.6841 37.9458C72.8754 37.9458 73.0941 37.9185 73.3129 37.8638C73.5316 37.8091 73.7503 37.7271 73.9417 37.6451L74.2971 39.1214C73.9963 39.2308 73.6683 39.3128 73.2855 39.3948C72.9028 39.4768 72.5474 39.5315 72.192 39.5315Z" fill="white"/>
<path d="M77.4407 25.8623C77.0853 25.8623 76.7572 25.753 76.5385 25.5069C76.2925 25.2609 76.1831 24.9601 76.1831 24.5774C76.1831 24.222 76.2925 23.9213 76.5385 23.6752C76.7846 23.4292 77.0853 23.3198 77.4407 23.3198C77.8234 23.3198 78.1242 23.4292 78.3702 23.6752C78.6162 23.9213 78.7256 24.222 78.7256 24.5774C78.7256 24.9601 78.6162 25.2609 78.3702 25.5069C78.1242 25.753 77.8234 25.8623 77.4407 25.8623ZM76.4292 39.2583V28.1041H78.4249V39.2583H76.4292Z" fill="white"/>
<path d="M86.3804 39.5313C85.4782 39.5313 84.6034 39.3126 83.8105 38.8478C83.0177 38.383 82.3889 37.7269 81.8968 36.8521C81.4047 35.9772 81.186 34.9384 81.186 33.6808C81.186 32.4506 81.4321 31.3843 81.8968 30.5095C82.3889 29.6347 83.0177 28.9512 83.8105 28.5138C84.6034 28.049 85.4509 27.8303 86.3804 27.8303C87.2826 27.8303 88.1301 28.049 88.9229 28.5138C89.7157 28.9785 90.3445 29.6347 90.8366 30.5095C91.3287 31.3843 91.5747 32.4506 91.5747 33.6808C91.5747 34.911 91.3287 35.9772 90.8366 36.8521C90.3445 37.7269 89.7157 38.383 88.9229 38.8478C88.1301 39.3126 87.2826 39.5313 86.3804 39.5313ZM86.3804 37.8909C87.0092 37.8909 87.5559 37.7269 88.0207 37.3715C88.4855 37.0161 88.8682 36.524 89.1142 35.8952C89.3603 35.2664 89.497 34.5283 89.497 33.7081C89.497 32.8606 89.3603 32.1225 89.1142 31.4937C88.8682 30.8649 88.5128 30.3728 88.0207 30.0174C87.5559 29.662 87.0092 29.498 86.3804 29.498C85.7516 29.498 85.2048 29.662 84.7401 30.0174C84.2753 30.3728 83.8926 30.8649 83.6465 31.4937C83.3731 32.1225 83.2638 32.8606 83.2638 33.7081C83.2638 34.5556 83.4005 35.2664 83.6465 35.8952C83.8926 36.524 84.2753 37.0161 84.7401 37.3715C85.2048 37.6996 85.7789 37.8909 86.3804 37.8909Z" fill="white"/>
<path d="M94.3633 39.2579V28.1037H95.9763L96.1676 29.7167H96.2223C96.7691 29.1699 97.3159 28.7325 97.9173 28.3771C98.5188 28.0217 99.2022 27.8303 99.9677 27.8303C101.171 27.8303 102.018 28.2131 102.565 28.9512C103.112 29.6894 103.385 30.7829 103.385 32.2045V39.2579H101.389V32.4506C101.389 31.439 101.225 30.7009 100.897 30.2361C100.569 29.7714 100.05 29.5527 99.3389 29.5527C98.7648 29.5527 98.2727 29.6893 97.8353 29.9627C97.3979 30.2361 96.9058 30.6735 96.359 31.2203V39.2579H94.3633Z" fill="white"/>
<path d="M109.755 39.5313C108.962 39.5313 108.197 39.3946 107.459 39.0938C106.72 38.7931 106.092 38.4377 105.572 37.973L106.529 36.688C107.021 37.0708 107.513 37.3715 108.033 37.6176C108.552 37.8636 109.126 37.973 109.782 37.973C110.493 37.973 111.04 37.8089 111.395 37.4809C111.751 37.1528 111.942 36.7701 111.942 36.3053C111.942 35.9226 111.805 35.5945 111.559 35.3485C111.313 35.1024 110.985 34.8837 110.603 34.7197C110.22 34.5556 109.81 34.3916 109.4 34.2276C108.88 34.0362 108.361 33.8175 107.869 33.5714C107.377 33.3254 106.939 32.97 106.611 32.5599C106.283 32.1498 106.119 31.6304 106.119 31.0016C106.119 30.0994 106.474 29.3339 107.158 28.7325C107.841 28.131 108.798 27.8303 110.001 27.8303C110.712 27.8303 111.368 27.967 111.97 28.2131C112.571 28.4591 113.063 28.7598 113.5 29.0879L112.571 30.3728C112.188 30.0721 111.805 29.8534 111.395 29.662C110.985 29.4706 110.548 29.3886 110.056 29.3886C109.372 29.3886 108.853 29.5527 108.525 29.8534C108.197 30.1541 108.033 30.5368 108.033 30.9469C108.033 31.3023 108.142 31.5757 108.388 31.7944C108.634 32.0131 108.935 32.2045 109.29 32.3685C109.673 32.5326 110.056 32.6966 110.493 32.8333C111.013 33.0247 111.532 33.2434 112.052 33.5168C112.571 33.7628 113.008 34.0909 113.336 34.5283C113.692 34.9384 113.856 35.5125 113.856 36.2233C113.856 36.8247 113.692 37.3989 113.391 37.8909C113.09 38.383 112.626 38.7931 111.997 39.0938C111.395 39.3672 110.657 39.5313 109.755 39.5313Z" fill="white"/>
</svg>