<svg width="30" height="39" viewBox="0 0 30 39" fill="none" xmlns="http://www.w3.org/2000/svg">
<path d="M18.153 38.6301L21.4336 27.7494C20.012 26.9565 19.0278 25.4529 19.0278 23.7032C19.0278 21.1608 21.0782 19.1104 23.6207 19.1104C26.1632 19.1104 28.2136 21.1608 28.2136 23.7032C28.2136 25.4529 27.2567 26.9565 25.8078 27.7494L29.0884 38.6301H18.153Z" fill="#071A2D"/>
<path d="M6.39722 23.7028V24.1403H8.44762V23.7028C8.44762 15.3099 15.2549 8.50255 23.6479 8.50255H26.3818V6.45215H23.6479C14.1341 6.45215 6.39722 14.1616 6.39722 23.7028Z" fill="#071A2D"/>
<path d="M12.6578 23.703V24.1404H14.7082V23.703C14.7082 18.7547 18.727 14.7359 23.648 14.7359H26.3818V12.6855H23.648C17.5788 12.6855 12.6578 17.6065 12.6578 23.703Z" fill="#071A2D"/>
<path d="M23.6479 0V0.0546773C10.5801 0.0273387 0 10.6347 0 23.7026V24.14H2.0504V23.7026C2.0504 11.783 11.7283 2.10508 23.6479 2.10508V2.0504H26.3818V0H23.6479Z" fill="#071A2D"/>
</svg>